<mxfile host="app.diagrams.net" modified="2023-05-29T14:19:30.360Z" agent="Mozilla/5.0 (X11; Linux x86_64; rv:108.0) Gecko/20100101 Firefox/108.0" etag="Iu1KE89Sk5h40GjDO9Bg" version="21.3.5" type="device">
  <diagram name="Page-1" id="MupfvHHFBMFo2o1cK1Xl">
    <mxGraphModel dx="954" dy="512" grid="1" gridSize="10" guides="1" tooltips="1" connect="1" arrows="1" fold="1" page="1" pageScale="1" pageWidth="827" pageHeight="1169" math="0" shadow="0">
      <root>
        <mxCell id="0" />
        <mxCell id="1" parent="0" />
        <mxCell id="FtzMLWEvTK-XO65rmCU0-1" value="" style="shape=umlLifeline;perimeter=lifelinePerimeter;whiteSpace=wrap;html=1;container=1;dropTarget=0;collapsible=0;recursiveResize=0;outlineConnect=0;portConstraint=eastwest;newEdgeStyle={&quot;edgeStyle&quot;:&quot;elbowEdgeStyle&quot;,&quot;elbow&quot;:&quot;vertical&quot;,&quot;curved&quot;:0,&quot;rounded&quot;:0};participant=umlActor;" parent="1" vertex="1">
          <mxGeometry x="230" y="60" width="20" height="460" as="geometry" />
        </mxCell>
        <mxCell id="FtzMLWEvTK-XO65rmCU0-2" value="Sistema" style="shape=umlLifeline;perimeter=lifelinePerimeter;whiteSpace=wrap;html=1;container=1;dropTarget=0;collapsible=0;recursiveResize=0;outlineConnect=0;portConstraint=eastwest;newEdgeStyle={&quot;edgeStyle&quot;:&quot;elbowEdgeStyle&quot;,&quot;elbow&quot;:&quot;vertical&quot;,&quot;curved&quot;:0,&quot;rounded&quot;:0};" parent="1" vertex="1">
          <mxGeometry x="470" y="60" width="100" height="460" as="geometry" />
        </mxCell>
        <mxCell id="FtzMLWEvTK-XO65rmCU0-3" value="ALT" style="shape=umlFrame;whiteSpace=wrap;html=1;pointerEvents=0;fillColor=#fff2cc;strokeColor=#d6b656;" parent="1" vertex="1">
          <mxGeometry x="160" y="120" width="440" height="390" as="geometry" />
        </mxCell>
        <mxCell id="FtzMLWEvTK-XO65rmCU0-4" value="" style="endArrow=none;endFill=0;endSize=12;html=1;rounded=0;" parent="1" edge="1">
          <mxGeometry width="160" relative="1" as="geometry">
            <mxPoint x="600" y="280" as="sourcePoint" />
            <mxPoint x="160" y="280" as="targetPoint" />
          </mxGeometry>
        </mxCell>
        <mxCell id="FtzMLWEvTK-XO65rmCU0-7" value="" style="endArrow=none;endFill=0;endSize=12;html=1;rounded=0;" parent="1" edge="1">
          <mxGeometry width="160" relative="1" as="geometry">
            <mxPoint x="600" y="400" as="sourcePoint" />
            <mxPoint x="160" y="400" as="targetPoint" />
          </mxGeometry>
        </mxCell>
        <mxCell id="FtzMLWEvTK-XO65rmCU0-10" value="" style="group" parent="1" vertex="1" connectable="0">
          <mxGeometry x="170" y="160" width="410" height="110" as="geometry" />
        </mxCell>
        <mxCell id="FtzMLWEvTK-XO65rmCU0-6" value="LOOP" style="shape=umlFrame;whiteSpace=wrap;html=1;pointerEvents=0;fillColor=#dae8fc;strokeColor=#6c8ebf;" parent="FtzMLWEvTK-XO65rmCU0-10" vertex="1">
          <mxGeometry width="410" height="110" as="geometry" />
        </mxCell>
        <mxCell id="FtzMLWEvTK-XO65rmCU0-8" value="approvazioneMenu(Servizio)" style="html=1;verticalAlign=bottom;endArrow=block;edgeStyle=elbowEdgeStyle;elbow=vertical;curved=0;rounded=0;" parent="FtzMLWEvTK-XO65rmCU0-10" target="FtzMLWEvTK-XO65rmCU0-2" edge="1">
          <mxGeometry width="80" relative="1" as="geometry">
            <mxPoint x="70" y="40" as="sourcePoint" />
            <mxPoint x="150" y="40" as="targetPoint" />
          </mxGeometry>
        </mxCell>
        <mxCell id="FtzMLWEvTK-XO65rmCU0-9" value="operazione completata" style="html=1;verticalAlign=bottom;endArrow=block;edgeStyle=elbowEdgeStyle;elbow=vertical;curved=0;rounded=0;" parent="FtzMLWEvTK-XO65rmCU0-10" source="FtzMLWEvTK-XO65rmCU0-2" target="FtzMLWEvTK-XO65rmCU0-1" edge="1">
          <mxGeometry width="80" relative="1" as="geometry">
            <mxPoint x="200" y="120" as="sourcePoint" />
            <mxPoint x="280" y="120" as="targetPoint" />
            <Array as="points">
              <mxPoint x="240" y="80" />
            </Array>
          </mxGeometry>
        </mxCell>
        <mxCell id="FtzMLWEvTK-XO65rmCU0-11" value="" style="group" parent="1" vertex="1" connectable="0">
          <mxGeometry x="170" y="290" width="410" height="100" as="geometry" />
        </mxCell>
        <mxCell id="FtzMLWEvTK-XO65rmCU0-12" value="LOOP" style="shape=umlFrame;whiteSpace=wrap;html=1;pointerEvents=0;fillColor=#dae8fc;strokeColor=#6c8ebf;" parent="FtzMLWEvTK-XO65rmCU0-11" vertex="1">
          <mxGeometry width="410" height="100" as="geometry" />
        </mxCell>
        <mxCell id="FtzMLWEvTK-XO65rmCU0-13" value="propostaModifica(Servizio, Ricetta, Commento)" style="html=1;verticalAlign=bottom;endArrow=block;edgeStyle=elbowEdgeStyle;elbow=vertical;curved=0;rounded=0;" parent="FtzMLWEvTK-XO65rmCU0-11" target="FtzMLWEvTK-XO65rmCU0-2" edge="1">
          <mxGeometry width="80" relative="1" as="geometry">
            <mxPoint x="70" y="36.36363636363636" as="sourcePoint" />
            <mxPoint x="150" y="36.36363636363636" as="targetPoint" />
          </mxGeometry>
        </mxCell>
        <mxCell id="FtzMLWEvTK-XO65rmCU0-14" value="operazione completata" style="html=1;verticalAlign=bottom;endArrow=none;edgeStyle=elbowEdgeStyle;elbow=vertical;curved=0;rounded=0;endFill=0;startArrow=block;startFill=1;" parent="1" source="FtzMLWEvTK-XO65rmCU0-1" target="FtzMLWEvTK-XO65rmCU0-2" edge="1">
          <mxGeometry width="80" relative="1" as="geometry">
            <mxPoint x="370" y="399.0909090909091" as="sourcePoint" />
            <mxPoint x="450" y="399.0909090909091" as="targetPoint" />
            <Array as="points">
              <mxPoint x="410" y="362.72727272727275" />
            </Array>
          </mxGeometry>
        </mxCell>
        <mxCell id="FtzMLWEvTK-XO65rmCU0-15" value="propostaModifica(Servizio, Ricetta, Commento)" style="html=1;verticalAlign=bottom;endArrow=block;edgeStyle=elbowEdgeStyle;elbow=vertical;curved=0;rounded=0;" parent="1" edge="1">
          <mxGeometry width="80" relative="1" as="geometry">
            <mxPoint x="240" y="430" as="sourcePoint" />
            <mxPoint x="520" y="429.6363636363636" as="targetPoint" />
          </mxGeometry>
        </mxCell>
        <mxCell id="FtzMLWEvTK-XO65rmCU0-16" value="il menù è associato ad un evento in corso" style="html=1;verticalAlign=bottom;endArrow=none;edgeStyle=elbowEdgeStyle;elbow=vertical;curved=0;rounded=0;endFill=0;startArrow=block;startFill=1;" parent="1" edge="1">
          <mxGeometry width="80" relative="1" as="geometry">
            <mxPoint x="240" y="460.27" as="sourcePoint" />
            <mxPoint x="520" y="460.27" as="targetPoint" />
            <Array as="points">
              <mxPoint x="410" y="459.99727272727273" />
            </Array>
          </mxGeometry>
        </mxCell>
        <mxCell id="FtzMLWEvTK-XO65rmCU0-17" value="" style="shape=umlDestroy;whiteSpace=wrap;html=1;strokeWidth=3;targetShapes=umlLifeline;" parent="1" vertex="1">
          <mxGeometry x="507.5" y="470" width="25" height="20" as="geometry" />
        </mxCell>
      </root>
    </mxGraphModel>
  </diagram>
</mxfile>
